<svg width="49" height="24" viewBox="0 0 49 24" fill="none" xmlns="http://www.w3.org/2000/svg">
<path fill-rule="evenodd" clip-rule="evenodd" d="M39.8536 10.2986C40.0407 10.6214 40.102 10.9887 40.1222 11.4016L40.1487 11.952V15.8003L40.1759 16.3513C40.2302 17.251 40.8937 17.9163 41.8003 17.9729L42.3484 18V11.952L42.3755 11.4016C42.398 10.9933 42.4587 10.6191 42.6487 10.294C42.8423 9.96052 43.1202 9.68384 43.4545 9.49174C43.7889 9.29964 44.1679 9.19889 44.5535 9.19959C44.9391 9.20029 45.3177 9.30243 45.6514 9.49574C45.985 9.68905 46.2619 9.96674 46.4543 10.3009C46.6414 10.6237 46.6998 10.998 46.7223 11.4016L46.7494 11.9502V15.8003L46.7766 16.3513C46.8332 17.2556 47.4915 17.9209 48.401 17.9729L48.9491 18V11.4016C48.9491 10.2348 48.4857 9.11583 47.6608 8.29063C46.8359 7.46544 45.7171 7.00162 44.5503 7.00116C43.9259 7.0005 43.3084 7.13312 42.7393 7.39015C42.1701 7.64718 41.6624 8.02271 41.25 8.49165C40.8374 8.0229 40.3296 7.64746 39.7606 7.39035C39.1915 7.13324 38.5741 7.00036 37.9497 7.00058C37.0361 7.00058 36.1883 7.27777 35.4861 7.75651C35.0576 7.27835 34.099 7.00058 33.5486 7.00058V18L34.099 17.9729C35.0195 17.9122 35.6847 17.2649 35.7205 16.3513L35.75 15.8003V11.952L35.7771 11.4016C35.8002 10.9864 35.858 10.6214 36.0457 10.2963C36.2394 9.96303 36.5172 9.68642 36.8513 9.49409C37.1854 9.30175 37.5641 9.20043 37.9497 9.20023C38.3355 9.20032 38.7145 9.30184 39.0486 9.49463C39.3828 9.68741 39.6604 9.96468 39.8536 10.2986ZM2.19965 17.9734L2.75 18H10.9994L10.9723 17.4514C10.8978 16.547 10.2573 15.8864 9.35011 15.8275L8.79977 15.8003H3.85069L10.4491 9.19965L10.4219 8.65162C10.3792 7.73803 9.71162 7.07796 8.79977 7.02772L8.24942 7.00289L0 7.00058L0.027142 7.55093C0.099328 8.44661 0.749002 9.12112 1.64873 9.17309L2.19965 9.20023H7.14873L0.550346 15.8009L0.577488 16.3513C0.631772 17.2579 1.28607 17.9145 2.19965 17.9729V17.9734ZM31.3894 8.61062C31.9002 9.1213 32.3054 9.7276 32.5818 10.3949C32.8583 11.0622 33.0005 11.7774 33.0005 12.4997C33.0005 13.222 32.8583 13.9372 32.5818 14.6045C32.3054 15.2718 31.9002 15.8781 31.3894 16.3888C30.3574 17.4199 28.9583 17.9992 27.4994 17.9992C26.0406 17.9992 24.6414 17.4199 23.6095 16.3888C21.4618 14.2411 21.4618 10.7583 23.6095 8.61062C24.1198 8.1001 24.7257 7.69511 25.3925 7.41876C26.0594 7.14241 26.7741 7.00011 27.496 7C28.219 6.9995 28.935 7.14154 29.6031 7.41801C30.2711 7.69447 30.8781 8.09993 31.3894 8.61119V8.61062ZM29.8331 10.1681C30.4517 10.7872 30.7992 11.6266 30.7992 12.5017C30.7992 13.3769 30.4517 14.2163 29.8331 14.8354C29.214 15.454 28.3746 15.8015 27.4994 15.8015C26.6242 15.8015 25.7849 15.454 25.1658 14.8354C24.5472 14.2163 24.1997 13.3769 24.1997 12.5017C24.1997 11.6266 24.5472 10.7872 25.1658 10.1681C25.7849 9.54949 26.6242 9.202 27.4994 9.202C28.3746 9.202 29.214 9.54949 29.8331 10.1681ZM15.9531 7C16.675 7.00019 17.3898 7.14257 18.0566 7.41903C18.7235 7.69548 19.3293 8.10058 19.8396 8.61119C21.9879 10.7583 21.9879 14.2417 19.8396 16.3888C18.8076 17.4199 17.4085 17.9992 15.9497 17.9992C14.4908 17.9992 13.0917 17.4199 12.0597 16.3888C9.91201 14.2411 9.91201 10.7583 12.0597 8.61062C12.57 8.1001 13.1759 7.69511 13.8427 7.41876C14.5096 7.14241 15.2243 7.00011 15.9462 7H15.9531ZM18.2833 10.1669C18.9021 10.7861 19.2497 11.6255 19.2497 12.5009C19.2497 13.3762 18.9021 14.2157 18.2833 14.8348C17.6642 15.4534 16.8248 15.8009 15.9497 15.8009C15.0745 15.8009 14.2351 15.4534 13.616 14.8348C12.9974 14.2157 12.6499 13.3763 12.6499 12.5012C12.6499 11.626 12.9974 10.7866 13.616 10.1675C14.2351 9.54891 15.0745 9.20142 15.9497 9.20142C16.8248 9.20142 17.6642 9.54891 18.2833 10.1675V10.1669Z" fill="#272D38"/>
</svg>
