<svg width="49" height="11" viewBox="0 0 49 11" fill="none" xmlns="http://www.w3.org/2000/svg">
<path fill-rule="evenodd" clip-rule="evenodd" d="M39.8536 3.29862C40.0407 3.62143 40.102 3.98871 40.1222 4.40162L40.1487 4.95196V8.80035L40.1759 9.35127C40.2302 10.251 40.8937 10.9163 41.8003 10.9729L42.3484 11V4.95196L42.3755 4.40162C42.398 3.99333 42.4587 3.61912 42.6487 3.294C42.8423 2.96052 43.1202 2.68384 43.4545 2.49174C43.7889 2.29964 44.1679 2.19889 44.5535 2.19959C44.9391 2.20029 45.3177 2.30243 45.6514 2.49574C45.985 2.68905 46.2619 2.96674 46.4543 3.30092C46.6414 3.62374 46.6998 3.99795 46.7223 4.40162L46.7494 4.95023V8.80035L46.7766 9.35127C46.8332 10.2556 47.4915 10.9209 48.401 10.9729L48.9491 11V4.40162C48.9491 3.23484 48.4857 2.11583 47.6608 1.29063C46.8359 0.465437 45.7171 0.00161591 44.5503 0.00115652C43.9259 0.000497937 43.3084 0.133115 42.7393 0.390149C42.1701 0.647183 41.6624 1.02271 41.25 1.49165C40.8374 1.0229 40.3296 0.647458 39.7606 0.390348C39.1915 0.133239 38.5741 0.000364101 37.9497 0.000578925C37.0361 0.000578925 36.1883 0.277774 35.4861 0.756511C35.0576 0.278351 34.099 0.000578925 33.5486 0.000578925V11L34.099 10.9729C35.0195 10.9122 35.6847 10.2649 35.7205 9.35127L35.75 8.80035V4.95196L35.7771 4.40162C35.8002 3.9864 35.858 3.62143 36.0457 3.29631C36.2394 2.96303 36.5172 2.68642 36.8513 2.49409C37.1854 2.30175 37.5641 2.20043 37.9497 2.20023C38.3355 2.20032 38.7145 2.30184 39.0486 2.49463C39.3828 2.68741 39.6604 2.96468 39.8536 3.29862V3.29862ZM2.19965 10.9734L2.75 11H10.9994L10.9723 10.4514C10.8978 9.54704 10.2573 8.88639 9.35011 8.82749L8.79977 8.80035H3.85069L10.4491 2.19965L10.4219 1.65162C10.3792 0.738031 9.71162 0.0779625 8.79977 0.0277207L8.24942 0.00288883L0 0.000578925L0.027142 0.550926C0.099328 1.44661 0.749002 2.12112 1.64873 2.17309L2.19965 2.20023H7.14873L0.550346 8.80092L0.577488 9.35127C0.631772 10.2579 1.28607 10.9145 2.19965 10.9729V10.9734ZM31.3894 1.61062C31.9002 2.1213 32.3054 2.7276 32.5818 3.3949C32.8583 4.0622 33.0005 4.77742 33.0005 5.49971C33.0005 6.22201 32.8583 6.93722 32.5818 7.60452C32.3054 8.27182 31.9002 8.87812 31.3894 9.38881C30.3574 10.4199 28.9583 10.9992 27.4994 10.9992C26.0406 10.9992 24.6414 10.4199 23.6095 9.38881C21.4618 7.24113 21.4618 3.7583 23.6095 1.61062C24.1198 1.1001 24.7257 0.695109 25.3925 0.418758C26.0594 0.142408 26.7741 0.000114002 27.496 1.3258e-06C28.219 -0.000500644 28.935 0.141543 29.6031 0.418007C30.2711 0.69447 30.8781 1.09993 31.3894 1.61119V1.61062ZM29.8331 3.1681C30.4517 3.78718 30.7992 4.62655 30.7992 5.50173C30.7992 6.37691 30.4517 7.21628 29.8331 7.83536C29.214 8.45398 28.3746 8.80147 27.4994 8.80147C26.6242 8.80147 25.7849 8.45398 25.1658 7.83536C24.5472 7.21628 24.1997 6.37691 24.1997 5.50173C24.1997 4.62655 24.5472 3.78718 25.1658 3.1681C25.7849 2.54949 26.6242 2.202 27.4994 2.202C28.3746 2.202 29.214 2.54949 29.8331 3.1681V3.1681ZM15.9531 1.3258e-06C16.675 0.000189844 17.3898 0.142575 18.0566 0.419025C18.7235 0.695476 19.3293 1.10058 19.8396 1.61119C21.9879 3.7583 21.9879 7.24171 19.8396 9.38881C18.8076 10.4199 17.4085 10.9992 15.9497 10.9992C14.4908 10.9992 13.0917 10.4199 12.0597 9.38881C9.91201 7.24113 9.91201 3.7583 12.0597 1.61062C12.57 1.1001 13.1759 0.695109 13.8427 0.418758C14.5096 0.142408 15.2243 0.000114002 15.9462 1.3258e-06H15.9531ZM18.2833 3.16695C18.9021 3.78605 19.2497 4.62555 19.2497 5.50087C19.2497 6.37619 18.9021 7.21568 18.2833 7.83479C17.6642 8.4534 16.8248 8.80089 15.9497 8.80089C15.0745 8.80089 14.2351 8.4534 13.616 7.83479C12.9974 7.21571 12.6499 6.37634 12.6499 5.50116C12.6499 4.62598 12.9974 3.7866 13.616 3.16752C14.2351 2.54891 15.0745 2.20142 15.9497 2.20142C16.8248 2.20142 17.6642 2.54891 18.2833 3.16752V3.16695Z" fill="#272D38"/>
</svg>
