<svg width="98" height="22" viewBox="0 0 98 22" fill="none" xmlns="http://www.w3.org/2000/svg">
<path fill-rule="evenodd" clip-rule="evenodd" d="M79.7073 6.59723C80.0815 7.24286 80.2039 7.97743 80.2443 8.80324L80.2975 9.90393V17.6007L80.3517 18.7025C80.4603 20.502 81.7874 21.8325 83.6007 21.9457L84.6968 22V9.90393L84.7511 8.80324C84.7961 7.98667 84.9174 7.23824 85.2974 6.58799C85.6846 5.92103 86.2404 5.36767 86.9091 4.98348C87.5778 4.59928 88.3358 4.39777 89.107 4.39918C89.8782 4.40058 90.6355 4.60485 91.3028 4.99148C91.97 5.37811 92.5239 5.93348 92.9086 6.60185C93.2829 7.24748 93.3995 7.99591 93.4446 8.80324L93.4988 9.90046V17.6007L93.5531 18.7025C93.6663 20.5112 94.983 21.8418 96.8021 21.9457L97.8981 22V8.80324C97.8981 6.46969 96.9714 4.23166 95.3216 2.58127C93.6719 0.930875 91.4342 0.00323181 89.1007 0.00231305C87.8517 0.000995875 86.6168 0.266231 85.4786 0.780298C84.3403 1.29437 83.3248 2.04543 82.5 2.98331C81.6748 2.0458 80.6593 1.29492 79.5211 0.780697C78.3829 0.266477 77.1482 0.000728203 75.8993 0.00115785C74.0721 0.00115785 72.3766 0.555547 70.9722 1.51302C70.1152 0.556701 68.1979 0.00115785 67.0972 0.00115785V22L68.1979 21.9457C70.039 21.8244 71.3695 20.5297 71.4411 18.7025L71.5 17.6007V9.90393L71.5543 8.80324C71.6005 7.97281 71.716 7.24286 72.0913 6.59261C72.4789 5.92606 73.0345 5.37284 73.7027 4.98817C74.3709 4.60351 75.1283 4.40086 75.8993 4.40046C76.6709 4.40063 77.4289 4.60368 78.0973 4.98925C78.7656 5.37482 79.3209 5.92935 79.7073 6.59723ZM4.39931 21.9469L5.5 22H21.9988L21.9446 20.9028C21.7956 19.0941 20.5147 17.7728 18.7002 17.655L17.5995 17.6007H7.70139L20.8982 4.39931L20.8439 3.30324C20.7584 1.47606 19.4232 0.155925 17.5995 0.0554414L16.4988 0.00577766L0 0.00115785L0.0542839 1.10185C0.198656 2.89322 1.498 4.24223 3.29746 4.34618L4.39931 4.40046H14.2975L1.10069 17.6018L1.15498 18.7025C1.26354 20.5159 2.57213 21.8291 4.39931 21.9457V21.9469ZM62.7788 3.22123C63.8004 4.2426 64.6107 5.45521 65.1636 6.7898C65.7165 8.1244 66.0011 9.55484 66.0011 10.9994C66.0011 12.444 65.7165 13.8744 65.1636 15.209C64.6107 16.5436 63.8004 17.7562 62.7788 18.7776C60.7148 20.8399 57.9165 21.9983 54.9988 21.9983C52.0812 21.9983 49.2829 20.8399 47.2189 18.7776C42.9236 14.4823 42.9236 7.51659 47.2189 3.22123C48.2396 2.20021 49.4513 1.39022 50.785 0.837517C52.1187 0.284816 53.5482 0.000228005 54.9919 2.65159e-06C56.4379 -0.00100129 57.87 0.283085 59.2061 0.836013C60.5423 1.38894 61.7563 2.19986 62.7788 3.22239V3.22123ZM59.6661 6.33621C60.9033 7.57436 61.5983 9.25311 61.5983 11.0035C61.5983 12.7538 60.9033 14.4326 59.6661 15.6707C58.4279 16.908 56.7492 17.6029 54.9988 17.6029C53.2485 17.6029 51.5697 16.908 50.3316 15.6707C49.0944 14.4326 48.3994 12.7538 48.3994 11.0035C48.3994 9.25311 49.0944 7.57436 50.3316 6.33621C51.5697 5.09898 53.2485 4.404 54.9988 4.404C56.7492 4.404 58.4279 5.09898 59.6661 6.33621ZM31.9062 2.65159e-06C33.35 0.000379687 34.7795 0.28515 36.1133 0.83805C37.4469 1.39095 38.6587 2.20115 39.6792 3.22239C43.9757 7.51659 43.9757 14.4834 39.6792 18.7776C37.6153 20.8399 34.817 21.9983 31.8993 21.9983C28.9816 21.9983 26.1833 20.8399 24.1194 18.7776C19.824 14.4823 19.824 7.51659 24.1194 3.22123C25.14 2.20021 26.3518 1.39022 27.6855 0.837517C29.0192 0.284816 30.4487 0.000228005 31.8924 2.65159e-06H31.9062ZM36.5666 6.3339C37.8041 7.5721 38.4994 9.25109 38.4994 11.0017C38.4994 12.7524 37.8041 14.4314 36.5666 15.6696C35.3284 16.9068 33.6497 17.6018 31.8993 17.6018C30.1489 17.6018 28.4702 16.9068 27.232 15.6696C25.9948 14.4314 25.2998 12.7527 25.2998 11.0023C25.2998 9.25195 25.9948 7.57321 27.232 6.33505C28.4702 5.09783 30.1489 4.40284 31.8993 4.40284C33.6497 4.40284 35.3284 5.09783 36.5666 6.33505V6.3339Z" fill="#272D38"/>
</svg>
